<!--?xml version="1.0" standalone="no"?-->
              <svg id="sw-js-blob-svg" viewBox="0 0 100 100" xmlns="http://www.w3.org/2000/svg" version="1.1">
                    <defs> 
                        <linearGradient id="sw-gradient" x1="0" x2="1" y1="1" y2="0">
                            <stop id="stop1" stop-color="rgba(197, 220, 255, 0.99)" offset="0%"></stop>
                            <stop id="stop2" stop-color="rgba(196, 196, 196, 0.11)" offset="100%"></stop>
                        </linearGradient>
                    </defs>
                <path fill="url(#sw-gradient)" d="M13.5,-13C19.3,-11.2,27,-8.7,32.2,-2.3C37.4,4.1,40,14.4,35.9,20C31.8,25.6,20.9,26.6,11.4,29.1C1.9,31.5,-6.2,35.5,-13.2,33.9C-20.1,32.3,-25.9,25.3,-31.3,17.4C-36.7,9.5,-41.7,0.6,-40,-6.7C-38.3,-14,-29.9,-19.8,-22.1,-21.3C-14.3,-22.8,-7.2,-20,-1.7,-18C3.8,-16,7.7,-14.9,13.5,-13Z" width="100%" height="100%" transform="translate(50 50)" stroke-width="0" style="transition: all 0.3s ease 0s;" stroke="url(#sw-gradient)"></path>
              </svg>