<svg width="48" height="35" viewBox="0 0 48 35" fill="none" xmlns="http://www.w3.org/2000/svg">
<g filter="url(#filter0_d_280_4152)">
<path d="M34 26.1286V24.2622C34 24.0171 33.9354 23.7744 33.8097 23.548C33.6841 23.3216 33.5 23.1159 33.2679 22.9425C33.0356 22.7692 32.76 22.6317 32.4568 22.538C32.1534 22.4442 31.8283 22.3959 31.5 22.3959H21.4993C18.1841 22.3959 15.0047 21.4127 12.6604 19.6627C10.3162 17.9127 8.99918 15.5392 8.99913 13.0643C8.99913 11.8388 9.32246 10.6254 9.95066 9.49322C10.5789 8.36104 11.4996 7.33233 12.6604 6.4658C13.8211 5.59928 15.1991 4.91193 16.7157 4.44298C18.2323 3.97403 19.8578 3.73268 21.4993 3.73269H31.4993C31.8276 3.73276 32.1529 3.68454 32.4562 3.59079C32.7596 3.49703 33.0354 3.35956 33.2675 3.18626C33.4998 3.01293 33.6839 2.80716 33.8097 2.58069C33.9354 2.35422 34 2.11149 34 1.86635V0H21.4999C19.2017 0 16.9261 0.337919 14.8029 0.994462C12.6797 1.651 10.7505 2.61332 9.12554 3.82645C7.50051 5.03959 6.21148 6.47978 5.33204 8.06482C4.45261 9.64984 3.99998 11.3487 4 13.0643C4 16.5291 5.84372 19.8521 9.12557 22.3021C12.4074 24.7521 16.8586 26.1286 21.4999 26.1286H34Z" fill="url(#paint0_linear_280_4152)"/>
<path d="M13.9993 13.0643C13.9993 14.5492 14.7894 15.9733 16.1959 17.0232C17.6024 18.0732 19.51 18.6631 21.499 18.6631H34.0001C35.3262 18.6631 36.5978 19.0564 37.5355 19.7563C38.4731 20.4563 39 21.4057 39 22.3957V26.1284H44.0001V22.3959C44.0001 20.416 42.9465 18.5172 41.0712 17.1171C39.1957 15.7171 36.6522 14.9306 34.0001 14.9306H21.4994C20.8363 14.9306 20.2004 14.734 19.7316 14.3841C19.2627 14.034 18.9993 13.5593 18.9993 13.0643C18.9993 12.5693 19.2627 12.0946 19.7316 11.7446C20.2004 11.3946 20.8363 11.1979 21.4994 11.1979H34.0001C36.6522 11.1979 39.1957 10.4114 41.0712 9.01142C42.9465 7.61142 44.0001 5.7126 44.0001 3.73269V0H38.9992V3.73269C38.9992 4.72253 38.4726 5.67184 37.5351 6.37181C36.5976 7.07178 35.3261 7.46509 34.0001 7.46525H21.4994C20.5144 7.46521 19.5391 7.61 18.6292 7.89137C17.7192 8.17274 16.8923 8.58517 16.1959 9.10508C15.4994 9.62501 14.947 10.2423 14.5701 10.9216C14.1932 11.6009 13.9992 12.329 13.9993 13.0643Z" fill="url(#paint1_linear_280_4152)"/>
</g>
<defs>
<filter id="filter0_d_280_4152" x="0" y="0" width="48" height="34.1284" filterUnits="userSpaceOnUse" color-interpolation-filters="sRGB">
<feFlood flood-opacity="0" result="BackgroundImageFix"/>
<feColorMatrix in="SourceAlpha" type="matrix" values="0 0 0 0 0 0 0 0 0 0 0 0 0 0 0 0 0 0 127 0" result="hardAlpha"/>
<feOffset dy="4"/>
<feGaussianBlur stdDeviation="2"/>
<feComposite in2="hardAlpha" operator="out"/>
<feColorMatrix type="matrix" values="0 0 0 0 0 0 0 0 0 0 0 0 0 0 0 0 0 0 0.25 0"/>
<feBlend mode="normal" in2="BackgroundImageFix" result="effect1_dropShadow_280_4152"/>
<feBlend mode="normal" in="SourceGraphic" in2="effect1_dropShadow_280_4152" result="shape"/>
</filter>
<linearGradient id="paint0_linear_280_4152" x1="8.53" y1="13.0643" x2="47.0201" y2="13.0643" gradientUnits="userSpaceOnUse">
<stop stop-color="#817696"/>
<stop offset="1" stop-color="#817698"/>
</linearGradient>
<linearGradient id="paint1_linear_280_4152" x1="8.50913" y1="13.0642" x2="47.0301" y2="13.0642" gradientUnits="userSpaceOnUse">
<stop stop-color="#8575D2"/>
<stop offset="1" stop-color="#9083D5"/>
</linearGradient>
</defs>
</svg>
